<svg width="200" height="200" viewBox="0 0 200 200" fill="none" xmlns="http://www.w3.org/2000/svg">
  <path d="M100 20C55.8172 20 20 55.8172 20 100C20 144.183 55.8172 180 100 180C144.183 180 180 144.183 180 100C180 55.8172 144.183 20 100 20ZM100 40C133.137 40 160 66.8629 160 100C160 133.137 133.137 160 100 160C66.8629 160 40 133.137 40 100C40 66.8629 66.8629 40 100 40Z" fill="#2196F3"/>
  <path d="M100 60C77.9086 60 60 77.9086 60 100C60 122.091 77.9086 140 100 140C122.091 140 140 122.091 140 100C140 77.9086 122.091 60 100 60ZM100 80C111.046 80 120 88.9543 120 100C120 111.046 111.046 120 100 120C88.9543 120 80 111.046 80 100C80 88.9543 88.9543 80 100 80Z" fill="#2196F3"/>
  <circle cx="100" cy="100" r="10" fill="#2196F3"/>
  <path d="M100 0L108.779 8.77852L100 17.5571L91.2215 8.77852L100 0Z" fill="#2196F3"/>
  <path d="M100 182.443L108.779 191.221L100 200L91.2215 191.221L100 182.443Z" fill="#2196F3"/>
  <path d="M200 100L191.221 108.779L182.443 100L191.221 91.2215L200 100Z" fill="#2196F3"/>
  <path d="M17.5571 100L8.77852 108.779L0 100L8.77852 91.2215L17.5571 100Z" fill="#2196F3"/>
</svg>